<svg xmlns="http://www.w3.org/2000/svg" width="64" height="64" viewBox="0 0 64 64" role="img" aria-label="Finance System">
  <defs>
    <linearGradient id="bg" x1="10" y1="6" x2="56" y2="60" gradientUnits="userSpaceOnUse">
      <stop offset="0" stop-color="#173A5E"/>
      <stop offset="1" stop-color="#0B1F33"/>
    </linearGradient>
    <linearGradient id="coin" x1="18" y1="42" x2="36" y2="58" gradientUnits="userSpaceOnUse">
      <stop offset="0" stop-color="#F7D36A"/>
      <stop offset="1" stop-color="#C58A24"/>
    </linearGradient>
  </defs>
  <rect x="4" y="4" width="56" height="56" rx="12" fill="url(#bg)"/>
  <path d="M20 13h19l9 9v27a4 4 0 0 1-4 4H20a4 4 0 0 1-4-4V17a4 4 0 0 1 4-4Z" fill="#F7FAFC"/>
  <path d="M39 13v8a2 2 0 0 0 2 2h7" fill="#DCE7F0"/>
  <path d="M23 28h18" stroke="#8AA0B5" stroke-width="3" stroke-linecap="round"/>
  <path d="M23 35h8" stroke="#8AA0B5" stroke-width="3" stroke-linecap="round"/>
  <rect x="35" y="34" width="4" height="10" rx="1" fill="#23A094"/>
  <rect x="41" y="29" width="4" height="15" rx="1" fill="#23A094"/>
  <rect x="47" y="25" width="4" height="19" rx="1" fill="#23A094"/>
  <circle cx="25" cy="47" r="10" fill="url(#coin)"/>
  <path d="M21 44h8M21 48h8M25 40v12" stroke="#6F4A10" stroke-width="2" stroke-linecap="round"/>
</svg>
